0
SECTION
2
HEADER
9
$INSUNITS
70
4
9
$ACADVER
1
AC1014
9
$HANDSEED
5
FFFF
0
ENDSEC
0
SECTION
2
TABLES
0
TABLE
2
VPORT
5
8
100
AcDbSymbolTable
0
ENDTAB
0
TABLE
2
LTYPE
5
5
100
AcDbSymbolTable
0
LTYPE
5
14
100
AcDbSymbolTableRecord
100
AcDbLinetypeTableRecord
2
BYBLOCK
70
0
0
LTYPE
5
15
100
AcDbSymbolTableRecord
100
AcDbLinetypeTableRecord
2
BYLAYER
70
0
0
ENDTAB
0
TABLE
2
LAYER
5
2
100
AcDbSymbolTable
70
2
0
LAYER
5
50
100
AcDbSymbolTableRecord
100
AcDbLayerTableRecord
2
0
70
0
6
CONTINUOUS
0
ENDTAB
0
TABLE
2
STYLE
5
3
100
AcDbSymbolTable
70
1
0
STYLE
5
11
100
AcDbSymbolTableRecord
100
AcDbTextStyleTableRecord
2
STANDARD
70
0
0
ENDTAB
0
TABLE
2
VIEW
5
6
100
AcDbSymbolTable
70
0
0
ENDTAB
0
TABLE
2
UCS
5
7
100
AcDbSymbolTable
70
0
0
ENDTAB
0
TABLE
2
APPID
5
9
100
AcDbSymbolTable
70
2
0
APPID
5
12
100
AcDbSymbolTableRecord
100
AcDbRegAppTableRecord
2
ACAD
70
0
0
ENDTAB
0
TABLE
2
DIMSTYLE
5
A
100
AcDbSymbolTable
70
1
0
ENDTAB
0
TABLE
2
BLOCK_RECORD
5
1
100
AcDbSymbolTable
70
1
0
BLOCK_RECORD
5
1F
100
AcDbSymbolTableRecord
100
AcDbBlockTableRecord
2
*MODEL_SPACE
0
BLOCK_RECORD
5
1B
100
AcDbSymbolTableRecord
100
AcDbBlockTableRecord
2
*PAPER_SPACE
0
ENDTAB
0
ENDSEC
0
SECTION
2
BLOCKS
0
BLOCK
5
20
100
AcDbEntity
100
AcDbBlockBegin
2
*MODEL_SPACE
0
ENDBLK
5
21
100
AcDbEntity
100
AcDbBlockEnd
0
BLOCK
5
1C
100
AcDbEntity
100
AcDbBlockBegin
2
*PAPER_SPACE
0
ENDBLK
5
1D
100
AcDbEntity
100
AcDbBlockEnd
0
ENDSEC
0
SECTION
2
ENTITIES
0
CIRCLE
5
100
100
AcDbEntity
8
0
100
AcDbCircle
10
-36.769552621700463
20
36.769552621700477
30
0
40
1.0499999999999998
210
0
220
-0
230
1
0
CIRCLE
5
101
100
AcDbEntity
8
0
100
AcDbCircle
10
-36.76955262170047
20
-36.76955262170047
30
0
40
1.0499999999999998
210
0
220
0
230
1
0
CIRCLE
5
102
100
AcDbEntity
8
0
100
AcDbCircle
10
36.769552621700463
20
-36.769552621700477
30
0
40
1.0499999999999998
210
-0
220
0
230
1
0
CIRCLE
5
103
100
AcDbEntity
8
0
100
AcDbCircle
10
36.769552621700477
20
36.769552621700463
30
0
40
1.0499999999999998
210
0
220
-0
230
1
0
LWPOLYLINE
5
104
100
AcDbEntity
8
0
100
AcDbPolyline
90
24
70
1
43
0.0
10
37.970223734993198
20
32.530940802788955
42
-0.36979490811330795
10
37.970223734993183
20
-32.530940802788962
42
0.39183669465333315
10
38.074819122019818
20
-35.246391997273633
10
38.183766184073562
20
-35.355339059327385
42
-0.99999999999999989
10
35.35533905932737
20
-38.183766184073569
10
35.246391997273619
20
-38.074819122019818
42
0.39183669465332849
10
32.530940802788976
20
-37.970223734993162
42
-0.36979490811330823
10
-32.530940802788976
20
-37.970223734993183
42
0.3918366946533316
10
-35.246391997273626
20
-38.074819122019818
10
-35.35533905932737
20
-38.183766184073569
42
-0.99999999999999989
10
-38.183766184073569
20
-35.35533905932737
10
-38.074819122019818
20
-35.246391997273619
42
0.39183669465332899
10
-37.970223734993169
20
-32.530940802788983
42
-0.3697949081133084
10
-37.970223734993183
20
32.530940802788983
42
0.3918366946533316
10
-38.074819122019818
20
35.246391997273633
10
-38.183766184073555
20
35.355339059327385
42
-0.99999999999999989
10
-35.355339059327363
20
38.183766184073569
10
-35.246391997273612
20
38.074819122019825
42
0.39183669465333076
10
-32.530940802788983
20
37.970223734993198
42
-0.36979490811330828
10
32.530940802788976
20
37.970223734993183
42
0.3918366946533316
10
35.246391997273633
20
38.074819122019818
10
35.355339059327378
20
38.183766184073562
42
-0.99999999999999989
10
38.183766184073569
20
35.35533905932737
10
38.074819122019825
20
35.246391997273619
42
0.39183669465333293
0
LWPOLYLINE
5
105
100
AcDbEntity
8
0
100
AcDbPolyline
90
4
70
1
43
0.0
10
-31.803048638807951
20
3.6000000000000005
10
32.574982892984039
20
3.6000000000000032
10
39.788348374133804
20
9.8938027905636545
42
0.77622345124936609
10
-39.647391993530469
20
10.444343354722513
0
LWPOLYLINE
5
106
100
AcDbEntity
8
0
100
AcDbPolyline
90
4
70
1
43
0.0
10
39.647391993530469
20
-10.444343354722498
42
-0.77068516007972121
10
-39.647391993530476
20
-10.444343354722516
10
-31.803048638807951
20
-3.600000000000001
10
31.803048638807951
20
-3.600000000000001
0
ENDSEC
0
SECTION
2
OBJECTS
0
DICTIONARY
5
C
100
AcDbDictionary
3
ACAD_GROUP
350
D
3
ACAD_MLINESTYLE
350
17
0
DICTIONARY
5
D
100
AcDbDictionary
0
DICTIONARY
5
1A
330
C
100
AcDbDictionary
0
DICTIONARY
5
17
100
AcDbDictionary
0
ENDSEC
0
EOF
