  0
SECTION
  2
HEADER
  9
$ACADVER
  1
AC1009
  9
$FILLMODE
 70
0
  9
$EXTMIN
 10
-50.0012
 20
-50.0012
 30
0.0000
  9
$EXTMAX
 10
50.0012
 20
50.0012
 30
0.0000
  0
ENDSEC
  0
SECTION
  2
TABLES
  0
TABLE
  2
LTYPE
 70
1
  0
LTYPE
  2
CONTINUOUS
 70
64
  3
Solid line
 72
65
 73
0
 40
0
  0
ENDTAB
  0
TABLE
  2
LAYER
 70
255
  0
LAYER
  2
31
 70
64
 62
253
  6
CONTINUOUS
  0
ENDTAB
  0
ENDSEC
  0
SECTION
  2
BLOCKS
  0
BLOCK
  8
0
  2
RECT
 70
64
 10
0.0000
 20
0.0000
 30
0.0000
  3
RECT
  0
SOLID
  8
0
 10
-0.5000
 20
-0.5000
 30
0.0000
 11
0.5000
 21
-0.5000
 31
0.0000
 12
-0.5000
 22
0.5000
 32
0.0000
 13
0.5000
 23
0.5000
 33
0.0000
  0
ENDBLK
  8
0
  0
BLOCK
  8
0
  2
PIE
 70
64
 10
0.0000
 20
0.0000
 30
0.0000
  3
PIE
  0
CIRCLE
  8
0
 10
0.0000
 20
0.0000
 30
0.0000
 40
0.5000
  0
ENDBLK
  8
0
  0
BLOCK
  8
0
  2
OCTAGONP
 70
64
 10
0.0000
 20
0.0000
 30
0.0000
  3
OCTAGONP
  0
POLYLINE
  8
0
 66
1
 10
0.0000
 20
0.0000
 30
0.0000
 40
0.0000
 41
0.0000
 70
1
  0
VERTEX
  8
0
 10
-0.5000
 20
-0.2071
 30
0.0000
  0
VERTEX
  8
0
 10
-0.5000
 20
0.2071
 30
0.0000
  0
VERTEX
  8
0
 10
-0.2071
 20
0.5000
 30
0.0000
  0
VERTEX
  8
0
 10
0.2071
 20
0.5000
 30
0.0000
  0
VERTEX
  8
0
 10
0.5000
 20
0.2071
 30
0.0000
  0
VERTEX
  8
0
 10
0.5000
 20
-0.2071
 30
0.0000
  0
VERTEX
  8
0
 10
0.2071
 20
-0.5000
 30
0.0000
  0
VERTEX
  8
0
 10
-0.2071
 20
-0.5000
 30
0.0000
  0
SEQEND
  8
0
  0
ENDBLK
  8
0
  0
BLOCK
  8
0
  2
SQUAREP
 70
64
 10
0.0000
 20
0.0000
 30
0.0000
  3
SQUAREP
  0
SOLID
  8
0
 10
-0.5000
 20
-0.5000
 30
0.0000
 11
0.5000
 21
-0.5000
 31
0.0000
 12
-0.5000
 22
0.5000
 32
0.0000
 13
0.5000
 23
0.5000
 33
0.0000
  0
ENDBLK
  8
0
  0
BLOCK
  8
0
  2
ROUNDP
 70
64
 10
0.0000
 20
0.0000
 30
0.0000
  3
ROUNDP
  0
CIRCLE
  8
0
 10
0.0000
 20
0.0000
 30
0.0000
 40
0.5000
  0
ENDBLK
  8
0
  0
BLOCK
  8
0
  2
ANNULUSP
 70
64
 10
0.0000
 20
0.0000
 30
0.0000
  3
ANNULUSP
  0
CIRCLE
  8
0
 10
0.0000
 20
0.0000
 30
0.0000
 40
0.5000
  0
ENDBLK
  8
0
  0
BLOCK
  8
0
  2
THERMALP
 70
64
 10
0.0000
 20
0.0000
 30
0.0000
  3
THERMALP
  0
POLYLINE
  8
0
 66
1
 10
0.0000
 20
0.0000
 30
0.0000
 40
0.0000
 41
0.0000
 70
1
  0
VERTEX
  8
0
 10
-0.2379
 20
0.4000
 30
0.0000
  0
VERTEX
  8
0
 10
0.2379
 20
0.4000
 30
0.0000
 42
1.0000
  0
VERTEX
  8
0
 10
0.2379
 20
0.5000
 30
0.0000
  0
VERTEX
  8
0
 10
-0.2379
 20
0.5000
 30
0.0000
 42
1.0000
  0
SEQEND
  8
0
  0
POLYLINE
  8
0
 66
1
 10
0.0000
 20
0.0000
 30
0.0000
 40
0.0000
 41
0.0000
 70
1
  0
VERTEX
  8
0
 10
0.4000
 20
0.2379
 30
0.0000
  0
VERTEX
  8
0
 10
0.4000
 20
-0.2379
 30
0.0000
 42
1.0000
  0
VERTEX
  8
0
 10
0.5000
 20
-0.2379
 30
0.0000
  0
VERTEX
  8
0
 10
0.5000
 20
0.2379
 30
0.0000
 42
1.0000
  0
SEQEND
  8
0
  0
POLYLINE
  8
0
 66
1
 10
0.0000
 20
0.0000
 30
0.0000
 40
0.0000
 41
0.0000
 70
1
  0
VERTEX
  8
0
 10
0.2379
 20
-0.4000
 30
0.0000
  0
VERTEX
  8
0
 10
-0.2379
 20
-0.4000
 30
0.0000
 42
1.0000
  0
VERTEX
  8
0
 10
-0.2379
 20
-0.5000
 30
0.0000
  0
VERTEX
  8
0
 10
0.2379
 20
-0.5000
 30
0.0000
 42
1.0000
  0
SEQEND
  8
0
  0
POLYLINE
  8
0
 66
1
 10
0.0000
 20
0.0000
 30
0.0000
 40
0.0000
 41
0.0000
 70
1
  0
VERTEX
  8
0
 10
-0.4000
 20
-0.2379
 30
0.0000
  0
VERTEX
  8
0
 10
-0.4000
 20
0.2379
 30
0.0000
 42
1.0000
  0
VERTEX
  8
0
 10
-0.5000
 20
0.2379
 30
0.0000
  0
VERTEX
  8
0
 10
-0.5000
 20
-0.2379
 30
0.0000
 42
1.0000
  0
SEQEND
  8
0
  0
ENDBLK
  8
0
  0
BLOCK
  8
0
  2
OCTAGONV
 70
64
 10
0.0000
 20
0.0000
 30
0.0000
  3
OCTAGONV
  0
POLYLINE
  8
0
 66
1
 10
0.0000
 20
0.0000
 30
0.0000
 40
0.0000
 41
0.0000
 70
1
  0
VERTEX
  8
0
 10
-0.5000
 20
-0.2071
 30
0.0000
  0
VERTEX
  8
0
 10
-0.5000
 20
0.2071
 30
0.0000
  0
VERTEX
  8
0
 10
-0.2071
 20
0.5000
 30
0.0000
  0
VERTEX
  8
0
 10
0.2071
 20
0.5000
 30
0.0000
  0
VERTEX
  8
0
 10
0.5000
 20
0.2071
 30
0.0000
  0
VERTEX
  8
0
 10
0.5000
 20
-0.2071
 30
0.0000
  0
VERTEX
  8
0
 10
0.2071
 20
-0.5000
 30
0.0000
  0
VERTEX
  8
0
 10
-0.2071
 20
-0.5000
 30
0.0000
  0
SEQEND
  8
0
  0
ENDBLK
  8
0
  0
BLOCK
  8
0
  2
SQUAREV
 70
64
 10
0.0000
 20
0.0000
 30
0.0000
  3
SQUAREV
  0
SOLID
  8
0
 10
-0.5000
 20
-0.5000
 30
0.0000
 11
0.5000
 21
-0.5000
 31
0.0000
 12
-0.5000
 22
0.5000
 32
0.0000
 13
0.5000
 23
0.5000
 33
0.0000
  0
ENDBLK
  8
0
  0
BLOCK
  8
0
  2
ROUNDV
 70
64
 10
0.0000
 20
0.0000
 30
0.0000
  3
ROUNDV
  0
CIRCLE
  8
0
 10
0.0000
 20
0.0000
 30
0.0000
 40
0.5000
  0
ENDBLK
  8
0
  0
BLOCK
  8
0
  2
ANNULUSV
 70
64
 10
0.0000
 20
0.0000
 30
0.0000
  3
ANNULUSV
  0
CIRCLE
  8
0
 10
0.0000
 20
0.0000
 30
0.0000
 40
0.5000
  0
ENDBLK
  8
0
  0
BLOCK
  8
0
  2
THERMALV
 70
64
 10
0.0000
 20
0.0000
 30
0.0000
  3
THERMALV
  0
POLYLINE
  8
0
 66
1
 10
0.0000
 20
0.0000
 30
0.0000
 40
0.0000
 41
0.0000
 70
1
  0
VERTEX
  8
0
 10
-0.2379
 20
0.4000
 30
0.0000
  0
VERTEX
  8
0
 10
0.2379
 20
0.4000
 30
0.0000
 42
1.0000
  0
VERTEX
  8
0
 10
0.2379
 20
0.5000
 30
0.0000
  0
VERTEX
  8
0
 10
-0.2379
 20
0.5000
 30
0.0000
 42
1.0000
  0
SEQEND
  8
0
  0
POLYLINE
  8
0
 66
1
 10
0.0000
 20
0.0000
 30
0.0000
 40
0.0000
 41
0.0000
 70
1
  0
VERTEX
  8
0
 10
0.4000
 20
0.2379
 30
0.0000
  0
VERTEX
  8
0
 10
0.4000
 20
-0.2379
 30
0.0000
 42
1.0000
  0
VERTEX
  8
0
 10
0.5000
 20
-0.2379
 30
0.0000
  0
VERTEX
  8
0
 10
0.5000
 20
0.2379
 30
0.0000
 42
1.0000
  0
SEQEND
  8
0
  0
POLYLINE
  8
0
 66
1
 10
0.0000
 20
0.0000
 30
0.0000
 40
0.0000
 41
0.0000
 70
1
  0
VERTEX
  8
0
 10
0.2379
 20
-0.4000
 30
0.0000
  0
VERTEX
  8
0
 10
-0.2379
 20
-0.4000
 30
0.0000
 42
1.0000
  0
VERTEX
  8
0
 10
-0.2379
 20
-0.5000
 30
0.0000
  0
VERTEX
  8
0
 10
0.2379
 20
-0.5000
 30
0.0000
 42
1.0000
  0
SEQEND
  8
0
  0
POLYLINE
  8
0
 66
1
 10
0.0000
 20
0.0000
 30
0.0000
 40
0.0000
 41
0.0000
 70
1
  0
VERTEX
  8
0
 10
-0.4000
 20
-0.2379
 30
0.0000
  0
VERTEX
  8
0
 10
-0.4000
 20
0.2379
 30
0.0000
 42
1.0000
  0
VERTEX
  8
0
 10
-0.5000
 20
0.2379
 30
0.0000
  0
VERTEX
  8
0
 10
-0.5000
 20
-0.2379
 30
0.0000
 42
1.0000
  0
SEQEND
  8
0
  0
ENDBLK
  8
0
  0
ENDSEC
  0
SECTION
  2
ENTITIES
  0
INSERT
  8
31
  2
RECT
 10
2.7482
 20
48.6291
 30
0.0000
 41
1.3000
 42
1.2000
 43
1.0000
 50
354.0000
  0
INSERT
  8
31
  2
RECT
 10
2.4032
 20
45.3472
 30
0.0000
 41
1.3000
 42
1.2000
 43
1.0000
 50
354.0000
  0
INSERT
  8
31
  2
RECT
 10
7.0775
 20
44.8559
 30
0.0000
 41
1.3000
 42
1.2000
 43
1.0000
 50
354.0000
  0
INSERT
  8
31
  2
RECT
 10
7.4224
 20
48.1379
 30
0.0000
 41
1.3000
 42
1.2000
 43
1.0000
 50
354.0000
  0
INSERT
  8
31
  2
RECT
 10
12.7987
 20
46.9951
 30
0.0000
 41
1.3000
 42
1.2000
 43
1.0000
 50
342.0000
  0
INSERT
  8
31
  2
RECT
 10
11.7789
 20
43.8566
 30
0.0000
 41
1.3000
 42
1.2000
 43
1.0000
 50
342.0000
  0
INSERT
  8
31
  2
RECT
 10
16.2489
 20
42.4042
 30
0.0000
 41
1.3000
 42
1.2000
 43
1.0000
 50
342.0000
  0
INSERT
  8
31
  2
RECT
 10
17.2687
 20
45.5427
 30
0.0000
 41
1.3000
 42
1.2000
 43
1.0000
 50
342.0000
  0
INSERT
  8
31
  2
RECT
 10
22.2898
 20
43.3071
 30
0.0000
 41
1.3000
 42
1.2000
 43
1.0000
 50
330.0000
  0
INSERT
  8
31
  2
RECT
 10
20.6398
 20
40.4492
 30
0.0000
 41
1.3000
 42
1.2000
 43
1.0000
 50
330.0000
  0
INSERT
  8
31
  2
RECT
 10
24.7102
 20
38.0992
 30
0.0000
 41
1.3000
 42
1.2000
 43
1.0000
 50
330.0000
  0
INSERT
  8
31
  2
RECT
 10
26.3602
 20
40.9571
 30
0.0000
 41
1.3000
 42
1.2000
 43
1.0000
 50
330.0000
  0
INSERT
  8
31
  2
RECT
 10
30.8068
 20
37.7265
 30
0.0000
 41
1.3000
 42
1.2000
 43
1.0000
 50
318.0000
  0
INSERT
  8
31
  2
RECT
 10
28.5987
 20
35.2741
 30
0.0000
 41
1.3000
 42
1.2000
 43
1.0000
 50
318.0000
  0
INSERT
  8
31
  2
RECT
 10
32.0915
 20
32.1292
 30
0.0000
 41
1.3000
 42
1.2000
 43
1.0000
 50
318.0000
  0
INSERT
  8
31
  2
RECT
 10
34.2996
 20
34.5815
 30
0.0000
 41
1.3000
 42
1.2000
 43
1.0000
 50
318.0000
  0
INSERT
  8
31
  2
RECT
 10
37.9774
 20
30.4969
 30
0.0000
 41
1.3000
 42
1.2000
 43
1.0000
 50
306.0000
  0
INSERT
  8
31
  2
RECT
 10
35.3076
 20
28.5573
 30
0.0000
 41
1.3000
 42
1.2000
 43
1.0000
 50
306.0000
  0
INSERT
  8
31
  2
RECT
 10
38.0702
 20
24.7549
 30
0.0000
 41
1.3000
 42
1.2000
 43
1.0000
 50
306.0000
  0
INSERT
  8
31
  2
RECT
 10
40.7400
 20
26.6946
 30
0.0000
 41
1.3000
 42
1.2000
 43
1.0000
 50
306.0000
  0
INSERT
  8
31
  2
RECT
 10
43.4882
 20
21.9346
 30
0.0000
 41
1.3000
 42
1.2000
 43
1.0000
 50
294.0000
  0
INSERT
  8
31
  2
RECT
 10
40.4735
 20
20.5923
 30
0.0000
 41
1.3000
 42
1.2000
 43
1.0000
 50
294.0000
  0
INSERT
  8
31
  2
RECT
 10
42.3851
 20
16.2987
 30
0.0000
 41
1.3000
 42
1.2000
 43
1.0000
 50
294.0000
  0
INSERT
  8
31
  2
RECT
 10
45.3998
 20
17.6409
 30
0.0000
 41
1.3000
 42
1.2000
 43
1.0000
 50
294.0000
  0
INSERT
  8
31
  2
RECT
 10
47.0983
 20
12.4136
 30
0.0000
 41
1.3000
 42
1.2000
 43
1.0000
 50
282.0000
  0
INSERT
  8
31
  2
RECT
 10
43.8704
 20
11.7274
 30
0.0000
 41
1.3000
 42
1.2000
 43
1.0000
 50
282.0000
  0
INSERT
  8
31
  2
RECT
 10
44.8476
 20
7.1301
 30
0.0000
 41
1.3000
 42
1.2000
 43
1.0000
 50
282.0000
  0
INSERT
  8
31
  2
RECT
 10
48.0755
 20
7.8163
 30
0.0000
 41
1.3000
 42
1.2000
 43
1.0000
 50
282.0000
  0
INSERT
  8
31
  2
RECT
 10
48.6500
 20
2.3500
 30
0.0000
 41
1.3000
 42
1.2000
 43
1.0000
 50
270.0000
  0
INSERT
  8
31
  2
RECT
 10
45.3500
 20
2.3500
 30
0.0000
 41
1.3000
 42
1.2000
 43
1.0000
 50
270.0000
  0
INSERT
  8
31
  2
RECT
 10
45.3500
 20
-2.3500
 30
0.0000
 41
1.3000
 42
1.2000
 43
1.0000
 50
270.0000
  0
INSERT
  8
31
  2
RECT
 10
48.6500
 20
-2.3500
 30
0.0000
 41
1.3000
 42
1.2000
 43
1.0000
 50
270.0000
  0
INSERT
  8
31
  2
RECT
 10
48.0755
 20
-7.8163
 30
0.0000
 41
1.3000
 42
1.2000
 43
1.0000
 50
258.0000
  0
INSERT
  8
31
  2
RECT
 10
44.8476
 20
-7.1301
 30
0.0000
 41
1.3000
 42
1.2000
 43
1.0000
 50
258.0000
  0
INSERT
  8
31
  2
RECT
 10
43.8704
 20
-11.7274
 30
0.0000
 41
1.3000
 42
1.2000
 43
1.0000
 50
258.0000
  0
INSERT
  8
31
  2
RECT
 10
47.0983
 20
-12.4136
 30
0.0000
 41
1.3000
 42
1.2000
 43
1.0000
 50
258.0000
  0
INSERT
  8
31
  2
RECT
 10
45.3998
 20
-17.6409
 30
0.0000
 41
1.3000
 42
1.2000
 43
1.0000
 50
246.0000
  0
INSERT
  8
31
  2
RECT
 10
42.3851
 20
-16.2987
 30
0.0000
 41
1.3000
 42
1.2000
 43
1.0000
 50
246.0000
  0
INSERT
  8
31
  2
RECT
 10
40.4735
 20
-20.5923
 30
0.0000
 41
1.3000
 42
1.2000
 43
1.0000
 50
246.0000
  0
INSERT
  8
31
  2
RECT
 10
43.4882
 20
-21.9345
 30
0.0000
 41
1.3000
 42
1.2000
 43
1.0000
 50
246.0000
  0
INSERT
  8
31
  2
RECT
 10
40.7400
 20
-26.6946
 30
0.0000
 41
1.3000
 42
1.2000
 43
1.0000
 50
234.0000
  0
INSERT
  8
31
  2
RECT
 10
38.0702
 20
-24.7549
 30
0.0000
 41
1.3000
 42
1.2000
 43
1.0000
 50
234.0000
  0
INSERT
  8
31
  2
RECT
 10
35.3076
 20
-28.5572
 30
0.0000
 41
1.3000
 42
1.2000
 43
1.0000
 50
234.0000
  0
INSERT
  8
31
  2
RECT
 10
37.9774
 20
-30.4969
 30
0.0000
 41
1.3000
 42
1.2000
 43
1.0000
 50
234.0000
  0
INSERT
  8
31
  2
RECT
 10
34.2996
 20
-34.5815
 30
0.0000
 41
1.3000
 42
1.2000
 43
1.0000
 50
222.0000
  0
INSERT
  8
31
  2
RECT
 10
32.0915
 20
-32.1292
 30
0.0000
 41
1.3000
 42
1.2000
 43
1.0000
 50
222.0000
  0
INSERT
  8
31
  2
RECT
 10
28.5987
 20
-35.2741
 30
0.0000
 41
1.3000
 42
1.2000
 43
1.0000
 50
222.0000
  0
INSERT
  8
31
  2
RECT
 10
30.8068
 20
-37.7264
 30
0.0000
 41
1.3000
 42
1.2000
 43
1.0000
 50
222.0000
  0
INSERT
  8
31
  2
RECT
 10
26.3602
 20
-40.9571
 30
0.0000
 41
1.3000
 42
1.2000
 43
1.0000
 50
210.0000
  0
INSERT
  8
31
  2
RECT
 10
24.7102
 20
-38.0993
 30
0.0000
 41
1.3000
 42
1.2000
 43
1.0000
 50
210.0000
  0
INSERT
  8
31
  2
RECT
 10
20.6398
 20
-40.4493
 30
0.0000
 41
1.3000
 42
1.2000
 43
1.0000
 50
210.0000
  0
INSERT
  8
31
  2
RECT
 10
22.2898
 20
-43.3071
 30
0.0000
 41
1.3000
 42
1.2000
 43
1.0000
 50
210.0000
  0
INSERT
  8
31
  2
RECT
 10
17.2687
 20
-45.5428
 30
0.0000
 41
1.3000
 42
1.2000
 43
1.0000
 50
198.0000
  0
INSERT
  8
31
  2
RECT
 10
16.2489
 20
-42.4043
 30
0.0000
 41
1.3000
 42
1.2000
 43
1.0000
 50
198.0000
  0
INSERT
  8
31
  2
RECT
 10
11.7789
 20
-43.8566
 30
0.0000
 41
1.3000
 42
1.2000
 43
1.0000
 50
198.0000
  0
INSERT
  8
31
  2
RECT
 10
12.7987
 20
-46.9951
 30
0.0000
 41
1.3000
 42
1.2000
 43
1.0000
 50
198.0000
  0
INSERT
  8
31
  2
RECT
 10
7.4224
 20
-48.1378
 30
0.0000
 41
1.3000
 42
1.2000
 43
1.0000
 50
186.0000
  0
INSERT
  8
31
  2
RECT
 10
7.0775
 20
-44.8559
 30
0.0000
 41
1.3000
 42
1.2000
 43
1.0000
 50
186.0000
  0
INSERT
  8
31
  2
RECT
 10
2.4032
 20
-45.3472
 30
0.0000
 41
1.3000
 42
1.2000
 43
1.0000
 50
186.0000
  0
INSERT
  8
31
  2
RECT
 10
2.7482
 20
-48.6291
 30
0.0000
 41
1.3000
 42
1.2000
 43
1.0000
 50
186.0000
  0
INSERT
  8
31
  2
RECT
 10
-2.7482
 20
-48.6291
 30
0.0000
 41
1.3000
 42
1.2000
 43
1.0000
 50
174.0000
  0
INSERT
  8
31
  2
RECT
 10
-2.4032
 20
-45.3472
 30
0.0000
 41
1.3000
 42
1.2000
 43
1.0000
 50
174.0000
  0
INSERT
  8
31
  2
RECT
 10
-7.0775
 20
-44.8559
 30
0.0000
 41
1.3000
 42
1.2000
 43
1.0000
 50
174.0000
  0
INSERT
  8
31
  2
RECT
 10
-7.4224
 20
-48.1378
 30
0.0000
 41
1.3000
 42
1.2000
 43
1.0000
 50
174.0000
  0
INSERT
  8
31
  2
RECT
 10
-12.7987
 20
-46.9951
 30
0.0000
 41
1.3000
 42
1.2000
 43
1.0000
 50
162.0000
  0
INSERT
  8
31
  2
RECT
 10
-11.7789
 20
-43.8566
 30
0.0000
 41
1.3000
 42
1.2000
 43
1.0000
 50
162.0000
  0
INSERT
  8
31
  2
RECT
 10
-16.2489
 20
-42.4043
 30
0.0000
 41
1.3000
 42
1.2000
 43
1.0000
 50
162.0000
  0
INSERT
  8
31
  2
RECT
 10
-17.2687
 20
-45.5428
 30
0.0000
 41
1.3000
 42
1.2000
 43
1.0000
 50
162.0000
  0
INSERT
  8
31
  2
RECT
 10
-22.2898
 20
-43.3071
 30
0.0000
 41
1.3000
 42
1.2000
 43
1.0000
 50
150.0000
  0
INSERT
  8
31
  2
RECT
 10
-20.6398
 20
-40.4493
 30
0.0000
 41
1.3000
 42
1.2000
 43
1.0000
 50
150.0000
  0
INSERT
  8
31
  2
RECT
 10
-24.7102
 20
-38.0993
 30
0.0000
 41
1.3000
 42
1.2000
 43
1.0000
 50
150.0000
  0
INSERT
  8
31
  2
RECT
 10
-26.3602
 20
-40.9571
 30
0.0000
 41
1.3000
 42
1.2000
 43
1.0000
 50
150.0000
  0
INSERT
  8
31
  2
RECT
 10
-30.8068
 20
-37.7264
 30
0.0000
 41
1.3000
 42
1.2000
 43
1.0000
 50
138.0000
  0
INSERT
  8
31
  2
RECT
 10
-28.5987
 20
-35.2741
 30
0.0000
 41
1.3000
 42
1.2000
 43
1.0000
 50
138.0000
  0
INSERT
  8
31
  2
RECT
 10
-32.0915
 20
-32.1292
 30
0.0000
 41
1.3000
 42
1.2000
 43
1.0000
 50
138.0000
  0
INSERT
  8
31
  2
RECT
 10
-34.2996
 20
-34.5815
 30
0.0000
 41
1.3000
 42
1.2000
 43
1.0000
 50
138.0000
  0
INSERT
  8
31
  2
RECT
 10
-37.9774
 20
-30.4969
 30
0.0000
 41
1.3000
 42
1.2000
 43
1.0000
 50
126.0000
  0
INSERT
  8
31
  2
RECT
 10
-35.3076
 20
-28.5572
 30
0.0000
 41
1.3000
 42
1.2000
 43
1.0000
 50
126.0000
  0
INSERT
  8
31
  2
RECT
 10
-38.0702
 20
-24.7549
 30
0.0000
 41
1.3000
 42
1.2000
 43
1.0000
 50
126.0000
  0
INSERT
  8
31
  2
RECT
 10
-40.7400
 20
-26.6946
 30
0.0000
 41
1.3000
 42
1.2000
 43
1.0000
 50
126.0000
  0
INSERT
  8
31
  2
RECT
 10
-43.4882
 20
-21.9345
 30
0.0000
 41
1.3000
 42
1.2000
 43
1.0000
 50
114.0000
  0
INSERT
  8
31
  2
RECT
 10
-40.4735
 20
-20.5923
 30
0.0000
 41
1.3000
 42
1.2000
 43
1.0000
 50
114.0000
  0
INSERT
  8
31
  2
RECT
 10
-42.3851
 20
-16.2987
 30
0.0000
 41
1.3000
 42
1.2000
 43
1.0000
 50
114.0000
  0
INSERT
  8
31
  2
RECT
 10
-45.3998
 20
-17.6409
 30
0.0000
 41
1.3000
 42
1.2000
 43
1.0000
 50
114.0000
  0
INSERT
  8
31
  2
RECT
 10
-47.0983
 20
-12.4136
 30
0.0000
 41
1.3000
 42
1.2000
 43
1.0000
 50
102.0000
  0
INSERT
  8
31
  2
RECT
 10
-43.8704
 20
-11.7274
 30
0.0000
 41
1.3000
 42
1.2000
 43
1.0000
 50
102.0000
  0
INSERT
  8
31
  2
RECT
 10
-44.8476
 20
-7.1301
 30
0.0000
 41
1.3000
 42
1.2000
 43
1.0000
 50
102.0000
  0
INSERT
  8
31
  2
RECT
 10
-48.0755
 20
-7.8163
 30
0.0000
 41
1.3000
 42
1.2000
 43
1.0000
 50
102.0000
  0
INSERT
  8
31
  2
RECT
 10
-48.6500
 20
-2.3500
 30
0.0000
 41
1.3000
 42
1.2000
 43
1.0000
 50
90.0000
  0
INSERT
  8
31
  2
RECT
 10
-45.3500
 20
-2.3500
 30
0.0000
 41
1.3000
 42
1.2000
 43
1.0000
 50
90.0000
  0
INSERT
  8
31
  2
RECT
 10
-45.3500
 20
2.3500
 30
0.0000
 41
1.3000
 42
1.2000
 43
1.0000
 50
90.0000
  0
INSERT
  8
31
  2
RECT
 10
-48.6500
 20
2.3500
 30
0.0000
 41
1.3000
 42
1.2000
 43
1.0000
 50
90.0000
  0
INSERT
  8
31
  2
RECT
 10
-48.0755
 20
7.8163
 30
0.0000
 41
1.3000
 42
1.2000
 43
1.0000
 50
78.0000
  0
INSERT
  8
31
  2
RECT
 10
-44.8476
 20
7.1301
 30
0.0000
 41
1.3000
 42
1.2000
 43
1.0000
 50
78.0000
  0
INSERT
  8
31
  2
RECT
 10
-43.8704
 20
11.7274
 30
0.0000
 41
1.3000
 42
1.2000
 43
1.0000
 50
78.0000
  0
INSERT
  8
31
  2
RECT
 10
-47.0983
 20
12.4136
 30
0.0000
 41
1.3000
 42
1.2000
 43
1.0000
 50
78.0000
  0
INSERT
  8
31
  2
RECT
 10
-45.3998
 20
17.6409
 30
0.0000
 41
1.3000
 42
1.2000
 43
1.0000
 50
66.0000
  0
INSERT
  8
31
  2
RECT
 10
-42.3851
 20
16.2987
 30
0.0000
 41
1.3000
 42
1.2000
 43
1.0000
 50
66.0000
  0
INSERT
  8
31
  2
RECT
 10
-40.4735
 20
20.5923
 30
0.0000
 41
1.3000
 42
1.2000
 43
1.0000
 50
66.0000
  0
INSERT
  8
31
  2
RECT
 10
-43.4882
 20
21.9346
 30
0.0000
 41
1.3000
 42
1.2000
 43
1.0000
 50
66.0000
  0
INSERT
  8
31
  2
RECT
 10
-40.7400
 20
26.6946
 30
0.0000
 41
1.3000
 42
1.2000
 43
1.0000
 50
54.0000
  0
INSERT
  8
31
  2
RECT
 10
-38.0702
 20
24.7549
 30
0.0000
 41
1.3000
 42
1.2000
 43
1.0000
 50
54.0000
  0
INSERT
  8
31
  2
RECT
 10
-35.3076
 20
28.5573
 30
0.0000
 41
1.3000
 42
1.2000
 43
1.0000
 50
54.0000
  0
INSERT
  8
31
  2
RECT
 10
-37.9774
 20
30.4969
 30
0.0000
 41
1.3000
 42
1.2000
 43
1.0000
 50
54.0000
  0
INSERT
  8
31
  2
RECT
 10
-34.2996
 20
34.5815
 30
0.0000
 41
1.3000
 42
1.2000
 43
1.0000
 50
42.0000
  0
INSERT
  8
31
  2
RECT
 10
-32.0915
 20
32.1292
 30
0.0000
 41
1.3000
 42
1.2000
 43
1.0000
 50
42.0000
  0
INSERT
  8
31
  2
RECT
 10
-28.5987
 20
35.2741
 30
0.0000
 41
1.3000
 42
1.2000
 43
1.0000
 50
42.0000
  0
INSERT
  8
31
  2
RECT
 10
-30.8068
 20
37.7265
 30
0.0000
 41
1.3000
 42
1.2000
 43
1.0000
 50
42.0000
  0
INSERT
  8
31
  2
RECT
 10
-26.3602
 20
40.9571
 30
0.0000
 41
1.3000
 42
1.2000
 43
1.0000
 50
30.0000
  0
INSERT
  8
31
  2
RECT
 10
-24.7102
 20
38.0992
 30
0.0000
 41
1.3000
 42
1.2000
 43
1.0000
 50
30.0000
  0
INSERT
  8
31
  2
RECT
 10
-20.6398
 20
40.4492
 30
0.0000
 41
1.3000
 42
1.2000
 43
1.0000
 50
30.0000
  0
INSERT
  8
31
  2
RECT
 10
-22.2898
 20
43.3071
 30
0.0000
 41
1.3000
 42
1.2000
 43
1.0000
 50
30.0000
  0
INSERT
  8
31
  2
RECT
 10
-17.2687
 20
45.5427
 30
0.0000
 41
1.3000
 42
1.2000
 43
1.0000
 50
18.0000
  0
INSERT
  8
31
  2
RECT
 10
-16.2489
 20
42.4042
 30
0.0000
 41
1.3000
 42
1.2000
 43
1.0000
 50
18.0000
  0
INSERT
  8
31
  2
RECT
 10
-11.7789
 20
43.8566
 30
0.0000
 41
1.3000
 42
1.2000
 43
1.0000
 50
18.0000
  0
INSERT
  8
31
  2
RECT
 10
-12.7987
 20
46.9951
 30
0.0000
 41
1.3000
 42
1.2000
 43
1.0000
 50
18.0000
  0
INSERT
  8
31
  2
RECT
 10
-7.4224
 20
48.1379
 30
0.0000
 41
1.3000
 42
1.2000
 43
1.0000
 50
6.0000
  0
INSERT
  8
31
  2
RECT
 10
-7.0775
 20
44.8559
 30
0.0000
 41
1.3000
 42
1.2000
 43
1.0000
 50
6.0000
  0
INSERT
  8
31
  2
RECT
 10
-2.4032
 20
45.3472
 30
0.0000
 41
1.3000
 42
1.2000
 43
1.0000
 50
6.0000
  0
INSERT
  8
31
  2
RECT
 10
-2.7482
 20
48.6291
 30
0.0000
 41
1.3000
 42
1.2000
 43
1.0000
 50
6.0000
  0
INSERT
  8
31
  2
RECT
 10
-41.6750
 20
-3.6250
 30
0.0000
 41
0.4000
 42
1.2500
 43
1.0000
 50
0.0000
  0
INSERT
  8
31
  2
RECT
 10
-41.0250
 20
-3.6250
 30
0.0000
 41
0.4000
 42
1.2500
 43
1.0000
 50
0.0000
  0
INSERT
  8
31
  2
RECT
 10
-40.3750
 20
-3.6250
 30
0.0000
 41
0.4000
 42
1.2500
 43
1.0000
 50
0.0000
  0
INSERT
  8
31
  2
RECT
 10
-39.7250
 20
-3.6250
 30
0.0000
 41
0.4000
 42
1.2500
 43
1.0000
 50
0.0000
  0
INSERT
  8
31
  2
RECT
 10
-39.0750
 20
-3.6250
 30
0.0000
 41
0.4000
 42
1.2500
 43
1.0000
 50
0.0000
  0
INSERT
  8
31
  2
RECT
 10
-38.4250
 20
-3.6250
 30
0.0000
 41
0.4000
 42
1.2500
 43
1.0000
 50
0.0000
  0
INSERT
  8
31
  2
RECT
 10
-37.7750
 20
-3.6250
 30
0.0000
 41
0.4000
 42
1.2500
 43
1.0000
 50
0.0000
  0
INSERT
  8
31
  2
RECT
 10
-37.1250
 20
-3.6250
 30
0.0000
 41
0.4000
 42
1.2500
 43
1.0000
 50
0.0000
  0
INSERT
  8
31
  2
RECT
 10
-36.4750
 20
-3.6250
 30
0.0000
 41
0.4000
 42
1.2500
 43
1.0000
 50
0.0000
  0
INSERT
  8
31
  2
RECT
 10
-35.8250
 20
-3.6250
 30
0.0000
 41
0.4000
 42
1.2500
 43
1.0000
 50
0.0000
  0
INSERT
  8
31
  2
RECT
 10
-35.1750
 20
-3.6250
 30
0.0000
 41
0.4000
 42
1.2500
 43
1.0000
 50
0.0000
  0
INSERT
  8
31
  2
RECT
 10
-34.5250
 20
-3.6250
 30
0.0000
 41
0.4000
 42
1.2500
 43
1.0000
 50
0.0000
  0
INSERT
  8
31
  2
RECT
 10
-34.5250
 20
3.6250
 30
0.0000
 41
0.4000
 42
1.2500
 43
1.0000
 50
0.0000
  0
INSERT
  8
31
  2
RECT
 10
-35.1750
 20
3.6250
 30
0.0000
 41
0.4000
 42
1.2500
 43
1.0000
 50
0.0000
  0
INSERT
  8
31
  2
RECT
 10
-35.8250
 20
3.6250
 30
0.0000
 41
0.4000
 42
1.2500
 43
1.0000
 50
0.0000
  0
INSERT
  8
31
  2
RECT
 10
-36.4750
 20
3.6250
 30
0.0000
 41
0.4000
 42
1.2500
 43
1.0000
 50
0.0000
  0
INSERT
  8
31
  2
RECT
 10
-37.1250
 20
3.6250
 30
0.0000
 41
0.4000
 42
1.2500
 43
1.0000
 50
0.0000
  0
INSERT
  8
31
  2
RECT
 10
-37.7750
 20
3.6250
 30
0.0000
 41
0.4000
 42
1.2500
 43
1.0000
 50
0.0000
  0
INSERT
  8
31
  2
RECT
 10
-38.4250
 20
3.6250
 30
0.0000
 41
0.4000
 42
1.2500
 43
1.0000
 50
0.0000
  0
INSERT
  8
31
  2
RECT
 10
-39.0750
 20
3.6250
 30
0.0000
 41
0.4000
 42
1.2500
 43
1.0000
 50
0.0000
  0
INSERT
  8
31
  2
RECT
 10
-39.7250
 20
3.6250
 30
0.0000
 41
0.4000
 42
1.2500
 43
1.0000
 50
0.0000
  0
INSERT
  8
31
  2
RECT
 10
-40.3750
 20
3.6250
 30
0.0000
 41
0.4000
 42
1.2500
 43
1.0000
 50
0.0000
  0
INSERT
  8
31
  2
RECT
 10
-41.0250
 20
3.6250
 30
0.0000
 41
0.4000
 42
1.2500
 43
1.0000
 50
0.0000
  0
INSERT
  8
31
  2
RECT
 10
-41.6750
 20
3.6250
 30
0.0000
 41
0.4000
 42
1.2500
 43
1.0000
 50
0.0000
  0
INSERT
  8
31
  2
RECT
 10
41.6750
 20
3.6250
 30
0.0000
 41
0.4000
 42
1.2500
 43
1.0000
 50
180.0000
  0
INSERT
  8
31
  2
RECT
 10
41.0250
 20
3.6250
 30
0.0000
 41
0.4000
 42
1.2500
 43
1.0000
 50
180.0000
  0
INSERT
  8
31
  2
RECT
 10
40.3750
 20
3.6250
 30
0.0000
 41
0.4000
 42
1.2500
 43
1.0000
 50
180.0000
  0
INSERT
  8
31
  2
RECT
 10
39.7250
 20
3.6250
 30
0.0000
 41
0.4000
 42
1.2500
 43
1.0000
 50
180.0000
  0
INSERT
  8
31
  2
RECT
 10
39.0750
 20
3.6250
 30
0.0000
 41
0.4000
 42
1.2500
 43
1.0000
 50
180.0000
  0
INSERT
  8
31
  2
RECT
 10
38.4250
 20
3.6250
 30
0.0000
 41
0.4000
 42
1.2500
 43
1.0000
 50
180.0000
  0
INSERT
  8
31
  2
RECT
 10
37.7750
 20
3.6250
 30
0.0000
 41
0.4000
 42
1.2500
 43
1.0000
 50
180.0000
  0
INSERT
  8
31
  2
RECT
 10
37.1250
 20
3.6250
 30
0.0000
 41
0.4000
 42
1.2500
 43
1.0000
 50
180.0000
  0
INSERT
  8
31
  2
RECT
 10
36.4750
 20
3.6250
 30
0.0000
 41
0.4000
 42
1.2500
 43
1.0000
 50
180.0000
  0
INSERT
  8
31
  2
RECT
 10
35.8250
 20
3.6250
 30
0.0000
 41
0.4000
 42
1.2500
 43
1.0000
 50
180.0000
  0
INSERT
  8
31
  2
RECT
 10
35.1750
 20
3.6250
 30
0.0000
 41
0.4000
 42
1.2500
 43
1.0000
 50
180.0000
  0
INSERT
  8
31
  2
RECT
 10
34.5250
 20
3.6250
 30
0.0000
 41
0.4000
 42
1.2500
 43
1.0000
 50
180.0000
  0
INSERT
  8
31
  2
RECT
 10
34.5250
 20
-3.6250
 30
0.0000
 41
0.4000
 42
1.2500
 43
1.0000
 50
180.0000
  0
INSERT
  8
31
  2
RECT
 10
35.1750
 20
-3.6250
 30
0.0000
 41
0.4000
 42
1.2500
 43
1.0000
 50
180.0000
  0
INSERT
  8
31
  2
RECT
 10
35.8250
 20
-3.6250
 30
0.0000
 41
0.4000
 42
1.2500
 43
1.0000
 50
180.0000
  0
INSERT
  8
31
  2
RECT
 10
36.4750
 20
-3.6250
 30
0.0000
 41
0.4000
 42
1.2500
 43
1.0000
 50
180.0000
  0
INSERT
  8
31
  2
RECT
 10
37.1250
 20
-3.6250
 30
0.0000
 41
0.4000
 42
1.2500
 43
1.0000
 50
180.0000
  0
INSERT
  8
31
  2
RECT
 10
37.7750
 20
-3.6250
 30
0.0000
 41
0.4000
 42
1.2500
 43
1.0000
 50
180.0000
  0
INSERT
  8
31
  2
RECT
 10
38.4250
 20
-3.6250
 30
0.0000
 41
0.4000
 42
1.2500
 43
1.0000
 50
180.0000
  0
INSERT
  8
31
  2
RECT
 10
39.0750
 20
-3.6250
 30
0.0000
 41
0.4000
 42
1.2500
 43
1.0000
 50
180.0000
  0
INSERT
  8
31
  2
RECT
 10
39.7250
 20
-3.6250
 30
0.0000
 41
0.4000
 42
1.2500
 43
1.0000
 50
180.0000
  0
INSERT
  8
31
  2
RECT
 10
40.3750
 20
-3.6250
 30
0.0000
 41
0.4000
 42
1.2500
 43
1.0000
 50
180.0000
  0
INSERT
  8
31
  2
RECT
 10
41.0250
 20
-3.6250
 30
0.0000
 41
0.4000
 42
1.2500
 43
1.0000
 50
180.0000
  0
INSERT
  8
31
  2
RECT
 10
41.6750
 20
-3.6250
 30
0.0000
 41
0.4000
 42
1.2500
 43
1.0000
 50
180.0000
  0
ENDSEC
  0
EOF
